<svg xmlns="http://www.w3.org/2000/svg" width="24px" height="24px" style="display:none">
    <symbol id="sitemap" viewBox="0 0 24 24">
        <path fill="none" d="M0 0h24v24H0z"/>
        <path d="M9,2V8H11V11H5C3.89,11 3,11.89 3,13V16H1V22H7V16H5V13H11V16H9V22H15V16H13V13H19V16H17V22H23V16H21V13C21,11.89 20.11,11 19,11H13V8H15V2H9Z"/>
    </symbol>
    <symbol id="arrow-collapse-left" viewBox="0 0 24 24">
        <path fill="none" d="M0 0h24v24H0z"/>
        <path d="M11.92,19.92L4,12L11.92,4.08L13.33,5.5L7.83,11H22V13H7.83L13.34,18.5L11.92,19.92M4,12V2H2V22H4V12Z"/>
    </symbol>
    <symbol id="arrow-collapse-right" viewBox="0 0 24 24">
        <path fill="none" d="M0 0h24v24H0z"/>
        <path d="M12.08,4.08L20,12L12.08,19.92L10.67,18.5L16.17,13H2V11H16.17L10.67,5.5L12.08,4.08M20,12V22H22V2H20V12Z"/>
    </symbol>
    <symbol id="google-plus-box" viewBox="0 0 24 24">
        <path fill="none" d="M0 0h24v24H0z"/>
        <path d="M5,3H19A2,2 0 0,1 21,5V19A2,2 0 0,1 19,21H5A2,2 0 0,1 3,19V5A2,2 0 0,1 5,3M19.5,12H18V10.5H17V12H15.5V13H17V14.5H18V13H19.5V12M9.65,11.36V12.9H12.22C12.09,13.54 11.45,14.83 9.65,14.83C8.11,14.83 6.89,13.54 6.89,12C6.89,10.46 8.11,9.17 9.65,9.17C10.55,9.17 11.13,9.56 11.45,9.88L12.67,8.72C11.9,7.95 10.87,7.5 9.65,7.5C7.14,7.5 5.15,9.5 5.15,12C5.15,14.5 7.14,16.5 9.65,16.5C12.22,16.5 13.96,14.7 13.96,12.13C13.96,11.81 13.96,11.61 13.89,11.36H9.65Z"/>
    </symbol>
    <symbol id="twitter-box" viewBox="0 0 24 24">
        <path fill="none" d="M0 0h24v24H0z"/>
        <path d="M5,3H19A2,2 0 0,1 21,5V19A2,2 0 0,1 19,21H5A2,2 0 0,1 3,19V5A2,2 0 0,1 5,3M17.71,9.33C18.19,8.93 18.75,8.45 19,7.92C18.59,8.13 18.1,8.26 17.56,8.33C18.06,7.97 18.47,7.5 18.68,6.86C18.16,7.14 17.63,7.38 16.97,7.5C15.42,5.63 11.71,7.15 12.37,9.95C9.76,9.79 8.17,8.61 6.85,7.16C6.1,8.38 6.75,10.23 7.64,10.74C7.18,10.71 6.83,10.57 6.5,10.41C6.54,11.95 7.39,12.69 8.58,13.09C8.22,13.16 7.82,13.18 7.44,13.12C7.81,14.19 8.58,14.86 9.9,15C9,15.76 7.34,16.29 6,16.08C7.15,16.81 8.46,17.39 10.28,17.31C14.69,17.11 17.64,13.95 17.71,9.33Z"/>
    </symbol>
    <symbol id="facebook-box" viewBox="0 0 24 24">
        <path fill="none" d="M0 0h24v24H0z"/>
        <path d="M5,3H19A2,2 0 0,1 21,5V19A2,2 0 0,1 19,21H5A2,2 0 0,1 3,19V5A2,2 0 0,1 5,3M18,5H15.5A3.5,3.5 0 0,0 12,8.5V11H10V14H12V21H15V14H18V11H15V9A1,1 0 0,1 16,8H18V5Z"/>
    </symbol>
    <symbol id="file-word-box" viewBox="0 0 24 24">
        <path fill="none" d="M0 0h24v24H0z"/>
        <path d="M15.5,17H14L12,9.5L10,17H8.5L6.1,7H7.8L9.34,14.5L11.3,7H12.7L14.67,14.5L16.2,7H17.9M19,3H5C3.89,3 3,3.89 3,5V19A2,2 0 0,0 5,21H19A2,2 0 0,0 21,19V5C21,3.89 20.1,3 19,3Z"/>
    </symbol>
    <symbol id="file-powerpoint-box" viewBox="0 0 24 24">
        <path fill="none" d="M0 0h24v24H0z"/>
        <path d="M9.8,13.4H12.3C13.8,13.4 14.46,13.12 15.1,12.58C15.74,12.03 16,11.25 16,10.23C16,9.26 15.75,8.5 15.1,7.88C14.45,7.29 13.83,7 12.3,7H8V17H9.8V13.4M19,3A2,2 0 0,1 21,5V19A2,2 0 0,1 19,21H5A2,2 0 0,1 3,19V5C3,3.89 3.9,3 5,3H19M9.8,12V8.4H12.1C12.76,8.4 13.27,8.65 13.6,9C13.93,9.35 14.1,9.72 14.1,10.24C14.1,10.8 13.92,11.19 13.6,11.5C13.28,11.81 12.9,12 12.22,12H9.8Z"/>
    </symbol>
    <symbol id="file-excel-box" viewBox="0 0 24 24">
        <path fill="none" d="M0 0h24v24H0z"/>
        <path d="M16.2,17H14.2L12,13.2L9.8,17H7.8L11,12L7.8,7H9.8L12,10.8L14.2,7H16.2L13,12M19,3H5C3.89,3 3,3.89 3,5V19A2,2 0 0,0 5,21H19A2,2 0 0,0 21,19V5C21,3.89 20.1,3 19,3Z"/>
    </symbol>
    <symbol id="vector-square" viewBox="0 0 24 24">
        <path fill="none" d="M0 0h24v24H0z"/>
        <path d="M2,2H8V4H16V2H22V8H20V16H22V22H16V20H8V22H2V16H4V8H2V2M16,8V6H8V8H6V16H8V18H16V16H18V8H16M4,4V6H6V4H4M18,4V6H20V4H18M4,18V20H6V18H4M18,18V20H20V18H18Z"/>
    </symbol>
</svg>